<svg width="304" height="228" viewBox="0 0 304 228" fill="none" xmlns="http://www.w3.org/2000/svg">
<path d="M289.649 189.943C296.003 198.577 300.155 205.716 302.139 211.369C304.129 217.04 303.893 221.074 301.72 223.664C299.527 226.279 295.209 227.618 288.54 227.492C281.899 227.366 273.066 225.788 262.025 222.74C239.899 216.632 221.143 212.52 205.761 210.409C190.387 208.298 178.346 208.18 169.67 210.089C152.558 213.852 130.82 214.437 104.439 211.824C78.1461 209.219 47.5216 196.187 12.5532 172.662C-4.88553 160.93 -15.9307 147.641 -20.6592 132.809C-25.3862 117.982 -23.8239 101.54 -15.9048 83.4521C-0.0477409 47.2345 26.1051 21.894 62.5733 7.4081C80.7927 0.170998 97.5449 -1.36977 112.851 2.73882C128.158 6.84763 142.074 16.6213 154.592 32.1123C179.812 63.3196 208.461 76.0811 240.505 70.226C248.436 68.7768 254.967 68.3121 260.114 68.8146C265.264 69.3175 268.971 70.7831 271.323 73.1396C273.661 75.4828 274.731 78.7794 274.459 83.1112C274.186 87.4549 272.564 92.8036 269.554 99.1716C257.348 124.996 264.147 155.286 289.649 189.943Z" stroke="#F7FAFC"/>
<path d="M249.964 170.095C254.641 176.432 257.691 181.663 259.146 185.796C260.607 189.946 260.415 192.848 258.861 194.695C257.286 196.567 254.159 197.552 249.254 197.459C244.378 197.367 237.883 196.211 229.753 193.974C213.45 189.488 199.626 186.466 188.286 184.914C176.955 183.364 168.067 183.275 161.652 184.681C149.065 187.441 133.065 187.871 113.638 185.953C94.2985 184.043 71.7585 174.485 46.0059 157.215C33.1749 148.61 25.0623 138.872 21.5908 128.016C18.1208 117.166 19.264 105.125 25.0885 91.8635C36.7562 65.2975 55.997 46.7126 82.8308 36.087C96.233 30.7801 108.545 29.6542 119.788 32.6627C131.032 35.6714 141.262 42.8299 150.471 54.1901C169.073 77.1358 190.222 86.5378 213.888 82.2272C219.724 81.164 224.523 80.8248 228.298 81.1922C232.076 81.56 234.773 82.6301 236.475 84.3306C238.164 86.0176 238.946 88.397 238.747 91.5509C238.548 94.7168 237.36 98.6273 235.146 103.297C226.123 122.327 231.164 144.627 249.964 170.095Z" stroke="#F7FAFC"/>
<path d="M259.013 220.656C302.203 232.576 311.369 221.65 286.512 187.876C261.654 154.103 255.129 124.729 266.937 99.7535C278.744 74.7783 269.112 65.1287 238.04 70.8049C206.969 76.4811 179.16 64.1354 154.613 33.7678C130.067 3.40013 99.9278 -4.68845 64.1958 9.50204C28.4637 23.6925 2.82977 48.5259 -12.7059 84.0021C-28.2416 119.478 -18.9202 148.711 15.2583 171.699C49.4369 194.688 79.4207 207.459 105.21 210.014C130.999 212.568 152.283 212 169.062 208.311C185.84 204.621 215.824 208.736 259.013 220.656Z" stroke="#F7FAFC"/>
<path d="M255.134 217.199C296.923 228.729 305.792 218.16 281.741 185.491C257.689 152.822 251.376 124.408 262.8 100.249C274.224 76.0906 264.905 66.7566 234.84 72.2472C204.776 77.7378 177.868 65.7958 154.117 36.4211C130.366 7.04645 101.204 -0.77764 66.6296 12.9488C32.0555 26.6753 7.25239 50.6966 -7.77982 85.0128C-22.812 119.329 -13.7927 147.606 19.2782 169.842C52.349 192.079 81.3612 204.433 106.315 206.904C131.268 209.375 151.862 208.826 168.097 205.257C184.332 201.688 213.344 205.669 255.134 217.199Z" stroke="#F7FAFC"/>
<path d="M250.255 212.85C290.284 223.89 298.779 213.77 275.741 182.49C252.703 151.21 246.655 124.004 257.598 100.873C268.542 77.7414 259.614 68.8043 230.816 74.0614C202.018 79.3186 176.244 67.8843 153.494 39.7586C130.744 11.6329 102.81 4.14144 69.6922 17.2843C36.5747 30.4272 12.8164 53.4271 -1.58253 86.2843C-15.9815 119.141 -7.3421 146.216 24.3356 167.507C56.0132 188.799 83.8032 200.627 107.705 202.993C131.608 205.359 151.334 204.833 166.885 201.416C182.436 197.999 210.226 201.81 250.255 212.85Z" stroke="#F7FAFC"/>
<path d="M244.378 207.61C282.285 218.059 290.33 208.481 268.513 178.875C246.696 149.268 240.969 123.518 251.332 101.624C261.695 79.7307 253.241 71.2717 225.969 76.2476C198.697 81.2234 174.289 70.401 152.744 43.7802C131.2 17.1594 104.746 10.0688 73.3836 22.5084C42.0211 34.948 19.5218 56.7174 5.88596 87.8165C-7.74992 118.916 0.431608 144.541 30.4306 164.693C60.4295 184.846 86.7467 196.041 109.382 198.28C132.018 200.519 150.699 200.022 165.426 196.788C180.153 193.553 206.47 197.161 244.378 207.61Z" stroke="#F7FAFC"/>
<path d="M237.498 201.479C272.923 211.237 280.442 202.292 260.053 174.644C239.664 146.996 234.312 122.949 243.997 102.504C253.681 82.0584 245.781 74.159 220.294 78.8057C194.808 83.4524 171.998 73.3458 151.864 48.4859C131.73 23.626 107.009 17.0044 77.6998 28.6212C48.3908 40.238 27.3648 60.5673 14.6217 89.6093C1.8787 118.651 9.52452 142.582 37.5592 161.401C65.5939 180.22 90.188 190.675 111.341 192.766C132.495 194.857 149.953 194.393 163.715 191.372C177.478 188.352 202.072 191.721 237.498 201.479Z" stroke="#F7FAFC"/>
</svg>
