<svg width="104" height="28" viewBox="0 0 104 28" fill="none" xmlns="http://www.w3.org/2000/svg">
<g id="Logo">
<path id="Vector" d="M21.6221 9.46863V5.78722C21.6221 2.59107 24.2033 0 27.3873 0H30.7366C36.6849 0 41.5064 4.83916 41.5064 10.8076V14.9009C41.5064 17.7196 39.1946 19.9872 36.3857 19.9213L31.5136 19.8059C29.8494 19.767 28.2983 18.9492 27.3204 17.5968L24.7675 14.0637C24.1244 13.174 22.7237 13.6308 22.7237 14.7286C22.7237 15.0252 22.8398 15.3098 23.0467 15.5224L28.5231 21.1314C31.0194 23.688 29.2153 28 25.6472 28C23.4233 28 21.6206 26.1907 21.6206 23.9591V14.0037C21.6206 12.8101 22.6358 11.871 23.8207 11.9683L37.1851 13.0602C38.6201 13.177 39.8496 12.0402 39.8496 10.5934C39.8496 9.03279 38.4265 7.86157 36.9008 8.1671L23.3429 10.8885C22.4512 11.0682 21.6191 10.3822 21.6191 9.47013L21.6221 9.46863Z" fill="#56E2F1"/>
<path id="Vector_2" d="M63.6783 9.46863V5.78722C63.6783 2.59107 66.2595 0 69.4435 0H72.7928C78.7396 0 83.5611 4.83916 83.5611 10.8076V14.9009C83.5611 17.7196 81.2493 19.9872 78.4404 19.9213L73.5683 19.8059C71.9041 19.767 70.353 18.9492 69.375 17.5968L66.8221 14.0637C66.1791 13.174 64.7783 13.6308 64.7783 14.7286C64.7783 15.0252 64.8945 15.3098 65.1014 15.5224L70.5778 21.1314C73.0741 23.688 71.27 28 67.7019 28C65.478 28 63.6753 26.1907 63.6753 23.9591V14.0037C63.6753 12.8101 64.6905 11.871 65.8754 11.9683L79.2398 13.0602C80.6748 13.177 81.9043 12.0402 81.9043 10.5934C81.9043 9.03279 80.4812 7.86157 78.9555 8.1671L65.3976 10.8885C64.5059 11.0682 63.6738 10.3822 63.6738 9.47013L63.6783 9.46863Z" fill="#56E2F1"/>
<path id="Vector_3" d="M15.2057 11.561L11.3593 2.30949C11.1047 1.69692 10.3976 1.41685 9.79477 1.68944C9.20679 1.95603 8.94331 2.64798 9.2053 3.23958L10.673 6.55255C11.0333 7.36582 10.8338 8.31837 10.1773 8.91747C9.69503 9.3578 9.03411 9.54202 8.39403 9.41471L3.86432 8.51158C3.20191 8.37978 2.58564 8.88751 2.58564 9.56448C2.58564 10.1576 3.06496 10.6384 3.65592 10.6384H9.049C10.2518 10.6384 11.4247 11.0068 12.4132 11.6943L15.6166 13.9229C18.3585 15.831 19.9617 18.9942 19.8828 22.3416L19.8426 24.0475C19.7935 26.1263 18.101 27.7873 16.0274 27.7873H7.60955C6.51992 27.7873 5.87537 26.5622 6.48866 25.6591L7.86856 23.6266C8.13353 23.2372 8.12757 22.7235 7.85517 22.3401C7.31482 21.5777 6.13587 21.7725 5.86793 22.6681L5.4035 24.2152C4.48654 27.2691 0 26.6056 0 23.4155V19.5993C0 16.5738 3.51004 14.9174 5.8322 16.8464L13.1202 22.9032C13.7633 23.4379 14.716 23.3436 15.2429 22.6936C15.8145 21.9881 15.6389 20.9382 14.8678 20.4604L3.49813 13.4047C1.32334 12.0552 0 9.67232 0 7.10671V4.42578C0 1.98149 1.97384 0 4.40913 0H13.5668C16.986 0 19.7563 2.78128 19.7563 6.21257V10.6458C19.7563 11.9579 18.6964 13.0212 17.3909 13.0212C16.4368 13.0212 15.5749 12.4446 15.2072 11.561H15.2057Z" fill="#56E2F1"/>
<path id="Vector_4" d="M98.2471 7.57693L99.9709 6.13313C100.9 5.3558 100.955 3.94345 100.091 3.09424C99.0152 2.03684 97.2066 2.47418 96.7273 3.9075L95.5617 7.39571C95.4486 7.73569 95.2491 8.04123 94.9857 8.28236C94.1655 9.03123 92.9047 9.00726 92.1127 8.22845L89.1207 5.28691C88.2484 4.42871 86.7837 4.77019 86.3758 5.92494C86.0647 6.8086 86.5336 7.77613 87.4193 8.07568L93.969 10.2878C94.6582 10.52 95.3132 10.851 95.9116 11.2658L99.7312 13.9228C102.473 15.8309 104.076 18.9941 103.997 22.3415L103.957 24.0474C103.908 26.1263 102.214 27.7873 100.142 27.7873H82.4534C80.1372 27.7873 78.6606 25.3055 79.7591 23.2596C80.5525 21.7829 82.379 21.2167 83.8631 21.9896L90.0764 25.2246C90.7894 25.5961 91.6662 25.3834 92.1336 24.7274C92.799 23.7913 92.3062 22.4778 91.1913 22.2127L86.4979 21.0984C84.5225 20.6296 83.6205 18.3246 84.7488 16.6307C85.7625 15.1105 87.9031 14.8873 89.2056 16.1679L97.3465 24.1702C98.2531 25.0614 99.7401 24.9206 100.465 23.8767C101.139 22.9047 100.861 21.5642 99.8563 20.9456L87.6292 13.4046C85.4454 12.0581 84.1147 9.66926 84.1147 7.09616V4.42871C84.1147 1.98442 86.0885 0.00292969 88.5238 0.00292969H97.6815C101.099 0.00292969 103.871 2.78421 103.871 6.2155V9.17351C103.871 11.1146 102.034 12.5269 100.167 12.0207L99.1596 11.7466C97.2885 11.2389 96.7615 8.82754 98.2501 7.57993L98.2471 7.57693Z" fill="#56E2F1"/>
<path id="Vector_5" d="M42.4281 11.2884L41.8818 4.89607C41.657 2.26306 43.7262 0 46.3594 0H56.7675C59.764 0 62.1948 2.4383 62.1948 5.44723V25.4464C62.1948 26.8093 61.0933 27.9146 59.7357 27.9146H56.5874C55.3057 27.9146 54.4885 26.5442 55.0914 25.4104L57.2409 21.3756C57.5609 20.775 56.9015 20.128 56.3105 20.4604L50.5081 23.7315C48.8081 24.69 46.7971 23.1249 47.2972 21.2333L47.589 20.1309C48.0847 18.2588 49.8963 17.0516 51.8076 17.3227L54.9619 17.7675C55.9815 17.9113 56.894 17.116 56.894 16.0826V12.163C56.894 10.6339 55.0393 9.8805 53.9794 10.9798L44.0998 21.2273C43.5014 21.8488 43.6621 22.8718 44.4228 23.2762L46.419 24.3411C48.1576 25.2681 47.5012 27.9131 45.5318 27.9131H38.0115C36.849 27.9131 35.9082 26.9681 35.9082 25.8013C35.9082 24.356 36.52 22.9781 37.5903 22.0106L57.7202 3.83119C58.0938 3.4927 58.2382 2.967 58.0864 2.48473C57.7857 1.52469 56.5561 1.26408 55.8937 2.01894L46.5753 12.6573C45.1954 14.2329 42.6053 13.3792 42.4266 11.2884H42.4281Z" fill="#56E2F1"/>
</g>
</svg>
