<svg width="104" height="30" viewBox="0 0 104 30" fill="none" xmlns="http://www.w3.org/2000/svg">
<path d="M21.6211 10.3068V6.4939C21.6211 3.18361 24.2023 0.5 27.3864 0.5H30.7356C36.6839 0.5 41.5054 5.51198 41.5054 11.6936V15.9331C41.5054 18.8524 39.1937 21.201 36.3847 21.1327L31.5127 21.0133C29.8484 20.973 28.2974 20.126 27.3194 18.7252L24.7665 15.0659C24.1234 14.1445 22.7227 14.6176 22.7227 15.7547C22.7227 16.0618 22.8388 16.3565 23.0457 16.5768L28.5221 22.3861C31.0185 25.034 29.2143 29.5 25.6462 29.5C23.4223 29.5 21.6197 27.6261 21.6197 25.3148V15.0039C21.6197 13.7676 22.6349 12.7949 23.8198 12.8958L37.1841 14.0266C38.6191 14.1476 39.8486 12.9702 39.8486 11.4718C39.8486 9.85539 38.4256 8.64234 36.8998 8.95879L23.3419 11.7773C22.4503 11.9635 21.6182 11.253 21.6182 10.3083L21.6211 10.3068Z" fill="#023365"/>
<path d="M63.6783 10.3068V6.4939C63.6783 3.18361 66.2595 0.5 69.4435 0.5H72.7928C78.7396 0.5 83.5611 5.51198 83.5611 11.6936V15.9331C83.5611 18.8524 81.2493 21.201 78.4404 21.1327L73.5683 21.0133C71.9041 20.973 70.353 20.126 69.375 18.7252L66.8221 15.0659C66.1791 14.1445 64.7783 14.6176 64.7783 15.7547C64.7783 16.0618 64.8945 16.3565 65.1014 16.5768L70.5778 22.3861C73.0741 25.034 71.27 29.5 67.7019 29.5C65.478 29.5 63.6753 27.6261 63.6753 25.3148V15.0039C63.6753 13.7676 64.6905 12.7949 65.8754 12.8958L79.2398 14.0266C80.6748 14.1476 81.9043 12.9702 81.9043 11.4718C81.9043 9.85539 80.4812 8.64234 78.9555 8.95879L65.3976 11.7773C64.5059 11.9635 63.6738 11.253 63.6738 10.3083L63.6783 10.3068Z" fill="#023365"/>
<path d="M15.2057 12.4738L11.3593 2.89198C11.1047 2.25753 10.3976 1.96745 9.79477 2.24977C9.20679 2.52589 8.94331 3.24255 9.2053 3.85528L10.673 7.28657C11.0333 8.12889 10.8338 9.11546 10.1773 9.73595C9.69503 10.192 9.03411 10.3828 8.39403 10.2509L3.86432 9.31557C3.20191 9.17906 2.58564 9.70492 2.58564 10.4061C2.58564 11.0204 3.06496 11.5183 3.65592 11.5183H9.049C10.2518 11.5183 11.4247 11.8999 12.4132 12.6119L15.6166 14.9201C18.3585 16.8964 19.9617 20.1725 19.8828 23.6395L19.8426 25.4063C19.7935 27.5594 18.101 29.2797 16.0274 29.2797H7.60955C6.51992 29.2797 5.87537 28.0108 6.48866 27.0755L7.86856 24.9704C8.13353 24.5671 8.12757 24.0351 7.85517 23.638C7.31482 22.8484 6.13587 23.05 5.86793 23.9777L5.4035 25.5801C4.48654 28.743 0 28.0558 0 24.7517V20.7992C0 17.6658 3.51004 15.9501 5.8322 17.9481L13.1202 24.2212C13.7633 24.775 14.716 24.6773 15.2429 24.004C15.8145 23.2734 15.6389 22.186 14.8678 21.6912L3.49813 14.3834C1.32334 12.9857 0 10.5178 0 7.86052V5.08385C0 2.55226 1.97384 0.5 4.40913 0.5H13.5668C16.986 0.5 19.7563 3.38061 19.7563 6.93445V11.5261C19.7563 12.8849 18.6964 13.9863 17.3909 13.9863C16.4368 13.9863 15.5749 13.3891 15.2072 12.4738H15.2057Z" fill="#023365"/>
<path d="M98.2471 8.34756L99.9709 6.85218C100.9 6.0471 100.955 4.5843 100.091 3.70476C99.0152 2.6096 97.2066 3.06256 96.7273 4.54707L95.5617 8.15986C95.4486 8.51198 95.2491 8.82843 94.9857 9.07818C94.1655 9.85379 92.9047 9.82897 92.1127 9.02234L89.1207 5.97575C88.2484 5.0869 86.7837 5.44058 86.3758 6.63656C86.0647 7.55178 86.5336 8.55387 87.4193 8.86411L93.969 11.1553C94.6582 11.3957 95.3132 11.7385 95.9116 12.1682L99.7312 14.9201C102.473 16.8963 104.076 20.1725 103.997 23.6395L103.957 25.4063C103.908 27.5594 102.214 29.2797 100.142 29.2797H82.4534C80.1372 29.2797 78.6606 26.7093 79.7591 24.5903C80.5525 23.0608 82.379 22.4745 83.8631 23.2749L90.0764 26.6255C90.7894 27.0102 91.6662 26.79 92.1336 26.1105C92.799 25.141 92.3062 23.7806 91.1913 23.506L86.4979 22.3519C84.5225 21.8664 83.6205 19.4791 84.7488 17.7247C85.7625 16.1502 87.9031 15.919 89.2056 17.2453L97.3465 25.5335C98.2531 26.4565 99.7401 26.3106 100.465 25.2295C101.139 24.2227 100.861 22.8344 99.8563 22.1937L87.6292 14.3833C85.4454 12.9888 84.1147 10.5146 84.1147 7.84962V5.0869C84.1147 2.55531 86.0885 0.503052 88.5238 0.503052H97.6815C101.099 0.503052 103.871 3.38366 103.871 6.9375V10.0012C103.871 12.0115 102.034 13.4743 100.167 12.95L99.1596 12.6661C97.2885 12.1403 96.7615 9.64282 98.2501 8.35066L98.2471 8.34756Z" fill="#023365"/>
<path d="M42.4281 12.1915L41.8818 5.57093C41.657 2.84389 43.7262 0.5 46.3594 0.5H56.7675C59.764 0.5 62.1948 3.02538 62.1948 6.14178V26.8552C62.1948 28.2668 61.0933 29.4116 59.7357 29.4116H56.5874C55.3057 29.4116 54.4885 27.9922 55.0914 26.8179L57.2409 22.639C57.5609 22.0169 56.9015 21.3468 56.3105 21.6912L50.5081 25.079C48.8081 26.0718 46.7971 24.4508 47.2972 22.4916L47.589 21.3499C48.0847 19.4109 49.8963 18.1606 51.8076 18.4414L54.9619 18.9021C55.9815 19.051 56.894 18.2273 56.894 17.157V13.0974C56.894 11.5136 55.0393 10.7334 53.9794 11.872L44.0998 22.4854C43.5014 23.1292 43.6621 24.1886 44.4228 24.6075L46.419 25.7104C48.1576 26.6706 47.5012 29.41 45.5318 29.41H38.0115C36.849 29.41 35.9082 28.4312 35.9082 27.2228C35.9082 25.7259 36.52 24.2988 37.5903 23.2967L57.7202 4.46801C58.0938 4.11744 58.2382 3.57296 58.0864 3.07347C57.7857 2.07914 56.5561 1.80923 55.8937 2.59104L46.5753 13.6093C45.1954 15.2412 42.6053 14.357 42.4266 12.1915H42.4281Z" fill="#023365"/>
</svg>
